<svg xmlns="http://www.w3.org/2000/svg" viewBox="0 0 400 400">
  <defs>
    <!-- Dégradé vert -->
    <linearGradient id="gradVert" x1="0%" y1="0%" x2="100%" y2="100%">
      <stop offset="0%" stop-color="#0E3B1F"/>
      <stop offset="100%" stop-color="#1A5C2A"/>
    </linearGradient>
    <!-- Dégradé pour le fond -->
    <radialGradient id="fondGrad" cx="50%" cy="50%" r="50%">
      <stop offset="0%" stop-color="#F5F5F5"/>
      <stop offset="100%" stop-color="#FFFFFF"/>
    </radialGradient>
    <!-- Ombre portée -->
    <filter id="ombre" x="-20%" y="-20%" width="140%" height="140%">
      <feDropShadow dx="0" dy="4" stdDeviation="8" flood-color="#000000" flood-opacity="0.1"/>
    </filter>
    <filter id="ombreLegere" x="-20%" y="-20%" width="140%" height="140%">
      <feDropShadow dx="0" dy="2" stdDeviation="4" flood-color="#000000" flood-opacity="0.08"/>
    </filter>
  </defs>

  <!-- Fond -->
  <rect width="400" height="400" fill="url(#fondGrad)" rx="24"/>

  <!-- Cercle extérieur décoratif (double anneau) -->
  <circle cx="200" cy="170" r="95" fill="none" stroke="url(#gradVert)" stroke-width="2" opacity="0.3"/>
  <circle cx="200" cy="170" r="85" fill="none" stroke="url(#gradVert)" stroke-width="1" opacity="0.15"/>
  <circle cx="200" cy="170" r="75" fill="url(#gradVert)" filter="url(#ombre)"/>

  <!-- Éléphant détaillé -->
  <g transform="translate(200,170) scale(1.1)">
    <!-- Corps -->
    <ellipse cx="0" cy="20" rx="28" ry="24" fill="white" filter="url(#ombreLegere)"/>
    <!-- Ventre légèrement grisé -->
    <ellipse cx="0" cy="24" rx="18" ry="16" fill="#E8F0E8"/>
    <!-- Tête -->
    <circle cx="0" cy="-8" r="22" fill="white" filter="url(#ombreLegere)"/>
    <!-- Oreilles -->
    <path d="M-22 -10 Q-36 -15 -34 -2 Q-32 12 -20 10 Q-16 8 -22 -10" fill="white" filter="url(#ombreLegere)"/>
    <path d="M22 -10 Q36 -15 34 -2 Q32 12 20 10 Q16 8 22 -10" fill="white" filter="url(#ombreLegere)"/>
    <!-- Intérieur oreilles (gris clair) -->
    <path d="M-24 -8 Q-30 -12 -30 -2 Q-30 6 -22 6 Q-20 4 -24 -8" fill="#DCE8DC"/>
    <path d="M24 -8 Q30 -12 30 -2 Q30 6 22 6 Q20 4 24 -8" fill="#DCE8DC"/>

    <!-- Trompe détaillée -->
    <path d="M0 8 Q-2 30 -8 36 Q-14 40 -12 34" fill="none" stroke="white" stroke-width="10" stroke-linecap="round" filter="url(#ombreLegere)"/>
    <!-- Ligne médiane de la trompe (détail) -->
    <path d="M0 10 Q-2 28 -8 34" fill="none" stroke="#DCE8DC" stroke-width="2" stroke-linecap="round"/>

    <!-- Yeux expressifs -->
    <circle cx="-9" cy="-10" r="4" fill="#0E3B1F"/>
    <circle cx="9" cy="-10" r="4" fill="#0E3B1F"/>
    <!-- Pupilles -->
    <circle cx="-8" cy="-11" r="1.5" fill="white"/>
    <circle cx="10" cy="-11" r="1.5" fill="white"/>

    <!-- Sourcils (petites courbes) -->
    <path d="M-13 -15 Q-9 -18 -5 -15" fill="none" stroke="#0E3B1F" stroke-width="1.5" stroke-linecap="round"/>
    <path d="M13 -15 Q9 -18 5 -15" fill="none" stroke="#0E3B1F" stroke-width="1.5" stroke-linecap="round"/>

    <!-- Joues -->
    <ellipse cx="-14" cy="-3" rx="5" ry="3" fill="#E0E0E0" opacity="0.5"/>
    <ellipse cx="14" cy="-3" rx="5" ry="3" fill="#E0E0E0" opacity="0.5"/>

    <!-- Bouche (sourire discret) -->
    <path d="M-4 2 Q0 7 4 2" fill="none" stroke="#0E3B1F" stroke-width="1.5" stroke-linecap="round"/>

    <!-- Défenses (détails) -->
    <path d="M-6 10 L-10 22 L-7 25" fill="none" stroke="white" stroke-width="3" stroke-linejoin="round" filter="url(#ombreLegere)"/>
    <path d="M6 10 L10 22 L7 25" fill="none" stroke="white" stroke-width="3" stroke-linejoin="round" filter="url(#ombreLegere)"/>
    <!-- Extrémités ivoire -->
    <circle cx="-8" cy="23" r="1.5" fill="#F5F5F5"/>
    <circle cx="8" cy="23" r="1.5" fill="#F5F5F5"/>

    <!-- Ride sur le front (détail) -->
    <path d="M-6 -4 Q0 -7 6 -4" fill="none" stroke="#DCE8DC" stroke-width="1" stroke-linecap="round"/>
    <path d="M-4 -1 Q0 -3 4 -1" fill="none" stroke="#DCE8DC" stroke-width="1" stroke-linecap="round"/>
  </g>

  <!-- Feuilles décoratives autour du cercle -->
  <g fill="url(#gradVert)">
    <path d="M120 100 Q110 85 125 80 Q140 85 120 100" transform="rotate(0 200 170)"/>
    <path d="M120 100 Q110 85 125 80 Q140 85 120 100" transform="rotate(45 200 170)"/>
    <path d="M120 100 Q110 85 125 80 Q140 85 120 100" transform="rotate(90 200 170)"/>
    <path d="M120 100 Q110 85 125 80 Q140 85 120 100" transform="rotate(135 200 170)"/>
    <path d="M120 100 Q110 85 125 80 Q140 85 120 100" transform="rotate(180 200 170)"/>
    <path d="M120 100 Q110 85 125 80 Q140 85 120 100" transform="rotate(225 200 170)"/>
    <path d="M120 100 Q110 85 125 80 Q140 85 120 100" transform="rotate(270 200 170)"/>
    <path d="M120 100 Q110 85 125 80 Q140 85 120 100" transform="rotate(315 200 170)"/>
  </g>

  <!-- Nom RéviBF -->
  <text x="200" y="290" font-family="'Inter', 'Helvetica Neue', sans-serif" font-weight="800" font-size="48" fill="#0E3B1F" text-anchor="middle" letter-spacing="-1.5" filter="url(#ombreLegere)">Révi<span fill="#1A5C2A">BF</span></text>

  <!-- Ligne de séparation -->
  <line x1="140" y1="305" x2="260" y2="305" stroke="url(#gradVert)" stroke-width="2" opacity="0.4"/>

  <!-- Tagline -->
  <text x="200" y="330" font-family="'Inter', sans-serif" font-weight="500" font-size="14" fill="#555555" text-anchor="middle" letter-spacing="2.5">RÉVISION · EXAMENS · BURKINA FASO</text>

  <!-- Petites étoiles décoratives -->
  <circle cx="100" cy="130" r="2" fill="#1A5C2A" opacity="0.4"/>
  <circle cx="300" cy="130" r="2" fill="#1A5C2A" opacity="0.4"/>
  <circle cx="100" cy="240" r="2" fill="#1A5C2A" opacity="0.4"/>
  <circle cx="300" cy="240" r="2" fill="#1A5C2A" opacity="0.4"/>
</svg>
