<svg xmlns="http://www.w3.org/2000/svg" viewBox="0 0 200 220">
  <circle cx="100" cy="100" r="90" fill="#FFC800"/>
  <!-- Tronc -->
  <path d="M70 160 L60 90 Q60 60 80 50 L100 40 L120 50 Q140 60 140 90 L130 160 Z" fill="#1A1A1A"/>
  <!-- Branches principales -->
  <path d="M80 70 Q50 50 30 40" fill="none" stroke="#1A1A1A" stroke-width="4"/>
  <path d="M120 70 Q150 50 170 40" fill="none" stroke="#1A1A1A" stroke-width="4"/>
  <!-- Branches secondaires nombreuses -->
  <path d="M30 40 Q20 30 15 20" fill="none" stroke="#1A1A1A" stroke-width="2"/>
  <path d="M30 40 Q35 25 30 15" fill="none" stroke="#1A1A1A" stroke-width="2"/>
  <path d="M30 40 Q40 35 45 25" fill="none" stroke="#1A1A1A" stroke-width="2"/>
  <path d="M170 40 Q180 30 185 20" fill="none" stroke="#1A1A1A" stroke-width="2"/>
  <path d="M170 40 Q165 25 170 15" fill="none" stroke="#1A1A1A" stroke-width="2"/>
  <path d="M170 40 Q160 35 155 25" fill="none" stroke="#1A1A1A" stroke-width="2"/>
  <!-- Branches fines terminales -->
  <path d="M15 20 Q10 15 5 10" fill="none" stroke="#1A1A1A" stroke-width="1.5"/>
  <path d="M15 20 Q20 15 25 10" fill="none" stroke="#1A1A1A" stroke-width="1.5"/>
  <path d="M30 15 Q25 10 20 5" fill="none" stroke="#1A1A1A" stroke-width="1.5"/>
  <path d="M30 15 Q35 10 40 5" fill="none" stroke="#1A1A1A" stroke-width="1.5"/>
  <path d="M45 25 Q50 20 55 15" fill="none" stroke="#1A1A1A" stroke-width="1.5"/>
  <path d="M185 20 Q190 15 195 10" fill="none" stroke="#1A1A1A" stroke-width="1.5"/>
  <path d="M185 20 Q180 15 175 10" fill="none" stroke="#1A1A1A" stroke-width="1.5"/>
  <path d="M170 15 Q165 10 160 5" fill="none" stroke="#1A1A1A" stroke-width="1.5"/>
  <path d="M170 15 Q175 10 180 5" fill="none" stroke="#1A1A1A" stroke-width="1.5"/>
  <path d="M155 25 Q150 20 145 15" fill="none" stroke="#1A1A1A" stroke-width="1.5"/>
  <!-- Feuilles -->
  <circle cx="5" cy="10" r="3" fill="#58CC02"/>
  <circle cx="25" cy="10" r="3" fill="#58CC02"/>
  <circle cx="20" cy="5" r="3" fill="#58CC02"/>
  <circle cx="40" cy="5" r="3" fill="#58CC02"/>
  <circle cx="55" cy="15" r="3" fill="#58CC02"/>
  <circle cx="195" cy="10" r="3" fill="#58CC02"/>
  <circle cx="175" cy="10" r="3" fill="#58CC02"/>
  <circle cx="180" cy="5" r="3" fill="#58CC02"/>
  <circle cx="160" cy="5" r="3" fill="#58CC02"/>
  <circle cx="145" cy="15" r="3" fill="#58CC02"/>
  <!-- Nom -->
  <text x="100" y="205" font-family="Nunito, sans-serif" font-weight="900" font-size="24" fill="#1A1A1A" text-anchor="middle">RéviBF</text>
</svg>
